<svg width="212" height="58" viewBox="0 0 212 58" fill="none" xmlns="http://www.w3.org/2000/svg">
<path d="M71.473 43.652H64.399L63.265 47H58.432L65.29 28.046H70.636L77.494 47H72.607L71.473 43.652ZM70.285 40.088L67.936 33.149L65.614 40.088H70.285ZM81.9032 30.368C81.0932 30.368 80.4272 30.134 79.9052 29.666C79.4012 29.18 79.1492 28.586 79.1492 27.884C79.1492 27.164 79.4012 26.57 79.9052 26.102C80.4272 25.616 81.0932 25.373 81.9032 25.373C82.6952 25.373 83.3432 25.616 83.8472 26.102C84.3692 26.57 84.6302 27.164 84.6302 27.884C84.6302 28.586 84.3692 29.18 83.8472 29.666C83.3432 30.134 82.6952 30.368 81.9032 30.368ZM84.1982 31.934V47H79.5812V31.934H84.1982ZM86.6261 39.44C86.6261 37.892 86.9141 36.533 87.4901 35.363C88.0841 34.193 88.8851 33.293 89.8931 32.663C90.9011 32.033 92.0261 31.718 93.2681 31.718C94.2581 31.718 95.1581 31.925 95.9681 32.339C96.7961 32.753 97.4441 33.311 97.9121 34.013V27.02H102.529V47H97.9121V44.84C97.4801 45.56 96.8591 46.136 96.0491 46.568C95.2571 47 94.3301 47.216 93.2681 47.216C92.0261 47.216 90.9011 46.901 89.8931 46.271C88.8851 45.623 88.0841 44.714 87.4901 43.544C86.9141 42.356 86.6261 40.988 86.6261 39.44ZM97.9121 39.467C97.9121 38.315 97.5881 37.406 96.9401 36.74C96.3101 36.074 95.5361 35.741 94.6181 35.741C93.7001 35.741 92.9171 36.074 92.2691 36.74C91.6391 37.388 91.3241 38.288 91.3241 39.44C91.3241 40.592 91.6391 41.51 92.2691 42.194C92.9171 42.86 93.7001 43.193 94.6181 43.193C95.5361 43.193 96.3101 42.86 96.9401 42.194C97.5881 41.528 97.9121 40.619 97.9121 39.467ZM120.746 31.934V47H116.129V44.948C115.661 45.614 115.022 46.154 114.212 46.568C113.42 46.964 112.538 47.162 111.566 47.162C110.414 47.162 109.397 46.91 108.515 46.406C107.633 45.884 106.949 45.137 106.463 44.165C105.977 43.193 105.734 42.05 105.734 40.736V31.934H110.324V40.115C110.324 41.123 110.585 41.906 111.107 42.464C111.629 43.022 112.331 43.301 113.213 43.301C114.113 43.301 114.824 43.022 115.346 42.464C115.868 41.906 116.129 41.123 116.129 40.115V31.934H120.746ZM123.145 39.467C123.145 37.901 123.46 36.533 124.09 35.363C124.738 34.193 125.629 33.293 126.763 32.663C127.915 32.033 129.229 31.718 130.705 31.718C132.595 31.718 134.17 32.213 135.43 33.203C136.708 34.193 137.545 35.588 137.941 37.388H133.027C132.613 36.236 131.812 35.66 130.624 35.66C129.778 35.66 129.103 35.993 128.599 36.659C128.095 37.307 127.843 38.243 127.843 39.467C127.843 40.691 128.095 41.636 128.599 42.302C129.103 42.95 129.778 43.274 130.624 43.274C131.812 43.274 132.613 42.698 133.027 41.546H137.941C137.545 43.31 136.708 44.696 135.43 45.704C134.152 46.712 132.577 47.216 130.705 47.216C129.229 47.216 127.915 46.901 126.763 46.271C125.629 45.641 124.738 44.741 124.09 43.571C123.46 42.401 123.145 41.033 123.145 39.467ZM139.492 39.44C139.492 37.892 139.78 36.533 140.356 35.363C140.95 34.193 141.751 33.293 142.759 32.663C143.767 32.033 144.892 31.718 146.134 31.718C147.196 31.718 148.123 31.934 148.915 32.366C149.725 32.798 150.346 33.365 150.778 34.067V31.934H155.395V47H150.778V44.867C150.328 45.569 149.698 46.136 148.888 46.568C148.096 47 147.169 47.216 146.107 47.216C144.883 47.216 143.767 46.901 142.759 46.271C141.751 45.623 140.95 44.714 140.356 43.544C139.78 42.356 139.492 40.988 139.492 39.44ZM150.778 39.467C150.778 38.315 150.454 37.406 149.806 36.74C149.176 36.074 148.402 35.741 147.484 35.741C146.566 35.741 145.783 36.074 145.135 36.74C144.505 37.388 144.19 38.288 144.19 39.44C144.19 40.592 144.505 41.51 145.135 42.194C145.783 42.86 146.566 43.193 147.484 43.193C148.402 43.193 149.176 42.86 149.806 42.194C150.454 41.528 150.778 40.619 150.778 39.467ZM167.133 43.085V47H164.784C163.11 47 161.805 46.595 160.869 45.785C159.933 44.957 159.465 43.616 159.465 41.762V35.768H157.629V31.934H159.465V28.262H164.082V31.934H167.106V35.768H164.082V41.816C164.082 42.266 164.19 42.59 164.406 42.788C164.622 42.986 164.982 43.085 165.486 43.085H167.133ZM172.026 30.368C171.216 30.368 170.55 30.134 170.028 29.666C169.524 29.18 169.272 28.586 169.272 27.884C169.272 27.164 169.524 26.57 170.028 26.102C170.55 25.616 171.216 25.373 172.026 25.373C172.818 25.373 173.466 25.616 173.97 26.102C174.492 26.57 174.753 27.164 174.753 27.884C174.753 28.586 174.492 29.18 173.97 29.666C173.466 30.134 172.818 30.368 172.026 30.368ZM174.321 31.934V47H169.704V31.934H174.321ZM184.525 47.216C183.049 47.216 181.717 46.901 180.529 46.271C179.359 45.641 178.432 44.741 177.748 43.571C177.082 42.401 176.749 41.033 176.749 39.467C176.749 37.919 177.091 36.56 177.775 35.39C178.459 34.202 179.395 33.293 180.583 32.663C181.771 32.033 183.103 31.718 184.579 31.718C186.055 31.718 187.387 32.033 188.575 32.663C189.763 33.293 190.699 34.202 191.383 35.39C192.067 36.56 192.409 37.919 192.409 39.467C192.409 41.015 192.058 42.383 191.356 43.571C190.672 44.741 189.727 45.641 188.521 46.271C187.333 46.901 186.001 47.216 184.525 47.216ZM184.525 43.22C185.407 43.22 186.154 42.896 186.766 42.248C187.396 41.6 187.711 40.673 187.711 39.467C187.711 38.261 187.405 37.334 186.793 36.686C186.199 36.038 185.461 35.714 184.579 35.714C183.679 35.714 182.932 36.038 182.338 36.686C181.744 37.316 181.447 38.243 181.447 39.467C181.447 40.673 181.735 41.6 182.311 42.248C182.905 42.896 183.643 43.22 184.525 43.22ZM204.039 31.772C205.803 31.772 207.207 32.348 208.251 33.5C209.313 34.634 209.844 36.2 209.844 38.198V47H205.254V38.819C205.254 37.811 204.993 37.028 204.471 36.47C203.949 35.912 203.247 35.633 202.365 35.633C201.483 35.633 200.781 35.912 200.259 36.47C199.737 37.028 199.476 37.811 199.476 38.819V47H194.859V31.934H199.476V33.932C199.944 33.266 200.574 32.744 201.366 32.366C202.158 31.97 203.049 31.772 204.039 31.772Z" fill="#FFF5E9"/>
<path d="M35.5009 0C34.6023 0 33.7148 0.156219 32.8717 0.457499L1.75448 11.7611C0.700597 12.1516 0.00170754 13.1559 0.00170754 14.2829C0.00170754 15.4099 0.700597 16.4142 1.75448 16.8047L8.1776 19.1369C6.35827 22.0158 5.32658 25.4191 5.32658 29.001V32.1366C5.32658 35.3056 4.12848 38.575 2.85273 41.1526C2.13166 42.6033 1.31074 44.0315 0.356699 45.3483C0.00170754 45.8281 -0.0981338 46.4529 0.101549 47.022C0.301232 47.5911 0.767158 48.0151 1.34402 48.1602L8.44385 49.9456C8.90977 50.0683 9.40898 49.979 9.81944 49.7224C10.2299 49.4658 10.5183 49.0417 10.6071 48.5619C11.5611 43.7861 11.0841 39.5012 10.3741 36.4326C10.0191 34.8481 9.5421 33.2301 8.87649 31.746V29.001C8.87649 25.6311 10.008 22.451 11.9716 19.9068C13.4026 18.1772 15.2552 16.7824 17.4296 15.9232L34.8463 9.03841C35.756 8.68133 36.7877 9.12768 37.1427 10.0427C37.4977 10.9577 37.0539 11.9954 36.1443 12.3525L18.7275 19.2373C17.3519 19.7841 16.1427 20.621 15.1554 21.6475L32.8606 28.0749C33.7037 28.3761 34.5912 28.5324 35.4898 28.5324C36.3883 28.5324 37.2758 28.3761 38.1189 28.0749L69.2472 16.8047C70.3011 16.4254 71 15.4099 71 14.2829C71 13.1559 70.3011 12.1516 69.2472 11.7611L38.13 0.457499C37.2869 0.156219 36.3994 0 35.5009 0ZM14.2014 41.9561C14.2014 45.895 23.7418 49.9902 35.5009 49.9902C47.2599 49.9902 56.8003 45.895 56.8003 41.9561L55.103 25.7316L39.3281 31.467C38.0967 31.9134 36.7988 32.1366 35.5009 32.1366C34.2029 32.1366 32.8939 31.9134 31.6736 31.467L15.8987 25.7316L14.2014 41.9561Z" fill="#FFF5E9"/>
</svg>
